<svg width="102" height="23" viewBox="0 0 102 23" fill="none" xmlns="http://www.w3.org/2000/svg">
<path d="M57.4389 0L44.6652 1.62172V5.29723L57.4389 4.18896V0Z" fill="#E4003A"/>
<path d="M18.4079 13.3834C18.4079 15.614 19.0918 16.3883 21.288 16.3883C23.4842 16.3883 24.1564 15.614 24.1564 13.3834C24.1564 11.1529 23.4943 10.3784 21.288 10.3784C19.0817 10.3784 18.4079 11.1416 18.4079 13.3834ZM14.5491 13.3497C14.5491 9.26314 16.8841 7.39454 21.2894 7.39454C25.6948 7.39454 28.0413 9.26314 28.0413 13.3497C28.0413 17.4362 25.7179 19.3708 21.2894 19.3708C16.861 19.3708 14.5491 17.4362 14.5491 13.3497Z" fill="#00274F"/>
<path d="M55.02 8.42141L44.6651 1.62171V5.29161L47.8937 7.41415L48.5283 7.77466C47.3732 7.78869 46.8136 8.01735 46.2555 8.34425C44.6608 9.27857 43.8338 10.9227 43.8338 13.3511C43.8338 17.4376 46.1573 19.3722 50.5741 19.3722C54.9911 19.3722 57.326 17.4376 57.326 13.3511C57.326 10.9872 56.5366 9.36975 55.0214 8.42282L55.02 8.42141ZM50.5727 16.3883C48.3766 16.3883 47.6927 15.6139 47.6927 13.3833C47.6927 11.1528 48.3766 10.3784 50.5727 10.3784C52.7689 10.3784 53.4412 11.1416 53.4412 13.3833C53.4412 15.6252 52.779 16.3883 50.5727 16.3883Z" fill="#00274F"/>
<path d="M7.90128 7.37493C5.81647 7.37493 4.12054 8.62485 3.69981 9.14258V7.63867H0V22.9987H3.67813V17.5373C4.11042 18.0676 5.79478 19.2951 7.88977 19.2951C11.3727 19.2951 13.287 17.4601 13.287 13.3287C13.287 9.19726 11.3727 7.37353 7.90128 7.37353V7.37493ZM6.58419 16.3182C4.38801 16.3182 3.70415 15.5438 3.70415 13.3133C3.70415 11.0827 4.38801 10.3083 6.58419 10.3083C8.78038 10.3083 9.45263 11.0715 9.45263 13.3133C9.45263 15.5551 8.79051 16.3182 6.58419 16.3182Z" fill="#00274F"/>
<path d="M82.6331 7.65121V11.8205H77.7495V7.65121H74.0484V18.9345H77.7495V14.7076H82.6331V18.9345H86.335V7.65121H82.6331Z" fill="#00274F"/>
<path d="M58.5984 13.33C58.5984 17.4615 60.5127 19.2964 63.9956 19.2964C66.0921 19.2964 67.7764 18.0689 68.2073 17.5386V18.9345H71.8854V7.64001H68.1841V9.14384C67.7634 8.62478 66.0689 7.37624 63.9826 7.37624C60.5112 7.37624 58.597 9.21121 58.597 13.3314L58.5984 13.33ZM62.4327 13.3131C62.4327 11.0714 63.0949 10.3082 65.3012 10.3082C67.4973 10.3082 68.1812 11.0714 68.1812 13.3131C68.1812 15.5437 67.4973 16.3181 65.3012 16.3181C63.0934 16.3181 62.4327 15.5437 62.4327 13.3131Z" fill="#00274F"/>
<path d="M38.7794 14.7652C38.496 15.945 37.7109 16.3883 36.0425 16.3883C33.8463 16.3883 33.1625 15.614 33.1625 13.3834C33.1625 11.1529 33.8463 10.3784 36.0425 10.3784C37.7138 10.3784 38.4974 10.8176 38.7808 12.0016L42.6411 11.7182C42.0642 8.76656 39.8088 7.39454 36.0425 7.39454C31.6371 7.39454 29.3021 9.26314 29.3021 13.3497C29.3021 17.4362 31.6255 19.3708 36.0425 19.3708C39.8016 19.3708 42.0382 17.9694 42.6296 15.0472L38.7794 14.7638V14.7652Z" fill="#00274F"/>
<path d="M102 18.9331L96.1416 13.0087L101.685 7.65121H97.1076L92.1395 12.5528V7.65121H88.5032V18.9331H92.1395V14.9882V14.0104V13.7383L97.2417 18.9331H102Z" fill="#00274F"/>
</svg>
