<svg width="26" height="24" viewBox="0 0 26 24" fill="none" xmlns="http://www.w3.org/2000/svg">
<path fill-rule="evenodd" clip-rule="evenodd" d="M13 0C13.3391 0 13.6489 0.186581 13.7994 0.481496L17.3329 7.4035L25.2364 8.52053C25.5727 8.56807 25.852 8.79701 25.9567 9.11094C26.0613 9.42487 25.973 9.76922 25.7291 9.99898L20.013 15.3825L21.3619 22.9871C21.4195 23.3118 21.2822 23.6401 21.0078 23.8341C20.7334 24.028 20.3693 24.054 20.0686 23.9011L13 20.3066L5.93138 23.9011C5.63068 24.054 5.26664 24.028 4.99222 23.8341C4.7178 23.6401 4.58055 23.3118 4.63815 22.9871L5.98701 15.3825L0.270919 9.99898C0.0269647 9.76922 -0.0612856 9.42487 0.0433347 9.11094C0.147955 8.79701 0.427265 8.56807 0.763633 8.52053L8.66705 7.4035L12.2006 0.481496C12.3511 0.186581 12.6609 0 13 0Z" fill="#E5E7EA"/>
</svg>
